<svg width="80" height="80" viewBox="0 0 80 80" fill="none" xmlns="http://www.w3.org/2000/svg">
<path fill-rule="evenodd" clip-rule="evenodd" d="M40.0005 66.6666C54.7279 66.6666 66.6668 54.7277 66.6668 40.0003C66.6668 25.2729 54.7279 13.334 40.0005 13.334C25.2731 13.334 13.3342 25.2729 13.3342 40.0003C13.3342 54.7277 25.2731 66.6666 40.0005 66.6666ZM35.7544 23.0938C35.3932 22.5433 34.724 22.2859 34.1105 22.5026C33.4116 22.7495 32.7281 23.0399 32.0639 23.3719C31.4809 23.6635 31.1884 24.3293 31.3168 24.9788L31.774 27.2927C31.8917 27.8882 31.6487 28.4927 31.1873 28.8767C30.458 29.4835 29.7848 30.1697 29.1817 30.9291C28.8068 31.4011 28.2153 31.6513 27.6312 31.5333L25.3629 31.0751C24.7257 30.9463 24.0739 31.2475 23.7905 31.8439C23.6304 32.1809 23.4793 32.5249 23.3375 32.8757C23.1958 33.2266 23.0655 33.5794 22.9465 33.9336C22.7358 34.5605 22.9903 35.2429 23.5313 35.6097L25.4573 36.9154C25.9532 37.2516 26.2002 37.8545 26.1403 38.459C26.0439 39.4315 26.0478 40.4024 26.1462 41.3573C26.2085 41.9615 25.9635 42.5652 25.4688 42.9032L23.5465 44.2164C23.007 44.5849 22.7547 45.2677 22.9671 45.8937C23.2091 46.6069 23.4937 47.3044 23.8191 47.9821C24.1048 48.577 24.7574 48.8755 25.3938 48.7445L27.6615 48.278C28.2451 48.1579 28.8375 48.4059 29.2138 48.8767C29.8085 49.6207 30.4809 50.3077 31.2251 50.9231C31.6877 51.3057 31.9329 51.9093 31.8172 52.5053L31.3682 54.8199C31.242 55.4701 31.5372 56.1352 32.1216 56.4244C32.4519 56.5878 32.789 56.742 33.1328 56.8866C33.4767 57.0312 33.8224 57.1641 34.1695 57.2856C35.1851 57.641 36.6065 56.3688 37.6573 55.4281C38.1755 54.9643 38.4952 54.3079 38.4986 53.605C38.4986 53.6013 38.4986 53.5975 38.4986 53.5937L38.4986 49.7232C38.4986 49.6822 38.5002 49.6415 38.5033 49.6013C35.3994 48.8441 33.0918 45.9948 33.0918 42.5955V38.4856C33.0918 38.1732 33.3399 37.9199 33.6461 37.9199H35.5686V33.8762C35.5686 33.3178 36.0121 32.8652 36.5593 32.8652C37.1064 32.8652 37.55 33.3178 37.55 33.8762V37.9199H42.7513V33.8762C42.7513 33.3178 43.1949 32.8652 43.742 32.8652C44.2892 32.8652 44.7328 33.3178 44.7328 33.8762V37.9199H46.6553C46.9614 37.9199 47.2096 38.1732 47.2096 38.4856V42.5955C47.2096 46.1023 44.7538 49.0237 41.5014 49.6668C41.5021 49.6855 41.5024 49.7043 41.5024 49.7232L41.5024 53.5771C41.5024 54.2935 41.8316 54.9619 42.3654 55.4274C43.4349 56.3602 44.8809 57.6212 45.8905 57.2645C46.5894 57.0176 47.2729 56.7273 47.9371 56.3952C48.5201 56.1037 48.8126 55.4378 48.6842 54.7884L48.227 52.4744C48.1093 51.8788 48.3523 51.2744 48.8137 50.8904C49.5429 50.2835 50.2161 49.5974 50.8193 48.838C51.1942 48.366 51.7857 48.1158 52.3698 48.2338L54.6381 48.6921C55.2753 48.8208 55.9271 48.5196 56.2105 47.9232C56.3706 47.5862 56.5217 47.2423 56.6634 46.8914C56.8051 46.5405 56.9355 46.1878 57.0545 45.8336C57.2652 45.2066 57.0107 44.5242 56.4697 44.1574L54.5436 42.8517C54.0477 42.5155 53.8007 41.9126 53.8606 41.3082C53.957 40.3356 53.9531 39.3647 53.8547 38.4098C53.7925 37.8056 54.0374 37.202 54.5322 36.864L56.4545 35.5508C56.994 35.1822 57.2462 34.4994 57.0338 33.8734C56.7919 33.1602 56.5073 32.4627 56.1819 31.785C55.8962 31.1901 55.2436 30.8917 54.6072 31.0226L52.3396 31.4892C51.7559 31.6093 51.1635 31.3613 50.7872 30.8905C50.1925 30.1464 49.5201 29.4594 48.7759 28.844C48.3133 28.4614 48.0681 27.8578 48.1838 27.2618L48.6328 24.9472C48.759 24.297 48.4638 23.6319 47.8793 23.3428C47.5491 23.1794 47.212 23.0252 46.8682 22.8806C46.5243 22.736 46.1786 22.603 45.8315 22.4815C45.2171 22.2665 44.5484 22.5262 44.1889 23.0783L42.9093 25.0436C42.5798 25.5496 41.989 25.8016 41.3966 25.7405C40.4435 25.6421 39.492 25.6461 38.5562 25.7465C37.9641 25.8101 37.3725 25.5601 37.0413 25.0553L35.7544 23.0938Z" fill="#005AE0"/>
</svg>
